<svg width="371" height="42" viewBox="0 0 371 42" fill="none" xmlns="http://www.w3.org/2000/svg">
<rect x="0.5" y="0.5" width="370" height="41" rx="1.5" fill="#FFFBDF" stroke="#DDDBC3"/>
<path d="M38.5795 17.2102V16.2727H45.125V17.2102H42.3807V25H41.3239V17.2102H38.5795ZM47.6254 21.0625V25H46.6197V16.2727H47.6254V19.4773H47.7106C47.864 19.1392 48.0941 18.8707 48.4009 18.6719C48.7106 18.4702 49.1225 18.3693 49.6367 18.3693C50.0827 18.3693 50.4734 18.4588 50.8086 18.6378C51.1438 18.8139 51.4038 19.0852 51.5884 19.4517C51.7759 19.8153 51.8697 20.2784 51.8697 20.8409V25H50.864V20.9091C50.864 20.3892 50.729 19.9872 50.4592 19.7031C50.1921 19.4162 49.8214 19.2727 49.3469 19.2727C49.0174 19.2727 48.7219 19.3423 48.4606 19.4815C48.2021 19.6207 47.9975 19.8239 47.8469 20.0909C47.6992 20.358 47.6254 20.6818 47.6254 21.0625ZM56.4538 25.1364C55.8232 25.1364 55.2791 24.9972 54.8217 24.7188C54.3672 24.4375 54.0163 24.0455 53.7692 23.5426C53.5249 23.0369 53.4027 22.4489 53.4027 21.7784C53.4027 21.108 53.5249 20.517 53.7692 20.0057C54.0163 19.4915 54.3601 19.0909 54.8004 18.804C55.2436 18.5142 55.7607 18.3693 56.3516 18.3693C56.6925 18.3693 57.0291 18.4261 57.3615 18.5398C57.6939 18.6534 57.9964 18.8381 58.2692 19.0938C58.5419 19.3466 58.7592 19.6818 58.9212 20.0994C59.0831 20.517 59.1641 21.0312 59.1641 21.642V22.0682H54.1186V21.1989H58.1413C58.1413 20.8295 58.0675 20.5 57.9197 20.2102C57.7749 19.9205 57.5675 19.6918 57.2976 19.5241C57.0305 19.3565 56.7152 19.2727 56.3516 19.2727C55.951 19.2727 55.6044 19.3722 55.3118 19.571C55.022 19.767 54.799 20.0227 54.6428 20.3381C54.4865 20.6534 54.4084 20.9915 54.4084 21.3523V21.9318C54.4084 22.4261 54.4936 22.8452 54.6641 23.1889C54.8374 23.5298 55.0774 23.7898 55.3842 23.9688C55.6911 24.1449 56.0476 24.233 56.4538 24.233C56.718 24.233 56.9567 24.196 57.1697 24.1222C57.3857 24.0455 57.5717 23.9318 57.728 23.7812C57.8842 23.6278 58.005 23.4375 58.0902 23.2102L59.0618 23.483C58.9595 23.8125 58.7876 24.1023 58.5462 24.3523C58.3047 24.5994 58.0064 24.7926 57.6513 24.9318C57.2962 25.0682 56.897 25.1364 56.4538 25.1364ZM65.3303 19.9205L64.4268 20.1761C64.37 20.0256 64.2862 19.8793 64.1754 19.7372C64.0675 19.5923 63.9197 19.473 63.7322 19.3793C63.5447 19.2855 63.3047 19.2386 63.0121 19.2386C62.6115 19.2386 62.2777 19.331 62.0107 19.5156C61.7464 19.6974 61.6143 19.929 61.6143 20.2102C61.6143 20.4602 61.7053 20.6577 61.8871 20.8026C62.0689 20.9474 62.353 21.0682 62.7393 21.1648L63.7109 21.4034C64.2962 21.5455 64.7322 21.7628 65.0192 22.0554C65.3061 22.3452 65.4496 22.7187 65.4496 23.1761C65.4496 23.5511 65.3416 23.8864 65.1257 24.1818C64.9126 24.4773 64.6143 24.7102 64.2308 24.8807C63.8473 25.0511 63.4013 25.1364 62.8928 25.1364C62.2251 25.1364 61.6726 24.9915 61.2351 24.7017C60.7976 24.4119 60.5206 23.9886 60.4041 23.4318L61.3587 23.1932C61.4496 23.5455 61.6214 23.8097 61.8743 23.9858C62.13 24.1619 62.4638 24.25 62.8757 24.25C63.3445 24.25 63.7166 24.1506 63.9922 23.9517C64.2706 23.75 64.4098 23.5085 64.4098 23.2273C64.4098 23 64.3303 22.8097 64.1712 22.6562C64.0121 22.5 63.7678 22.3835 63.4382 22.3068L62.3473 22.0511C61.7479 21.9091 61.3075 21.6889 61.0263 21.3906C60.7479 21.0895 60.6087 20.7131 60.6087 20.2614C60.6087 19.892 60.7124 19.5653 60.9197 19.2812C61.13 18.9972 61.4155 18.7741 61.7763 18.6122C62.1399 18.4503 62.5518 18.3693 63.0121 18.3693C63.6598 18.3693 64.1683 18.5114 64.5376 18.7955C64.9098 19.0795 65.174 19.4545 65.3303 19.9205ZM69.7077 25.1364C69.0771 25.1364 68.533 24.9972 68.0756 24.7188C67.6211 24.4375 67.2702 24.0455 67.0231 23.5426C66.7788 23.0369 66.6566 22.4489 66.6566 21.7784C66.6566 21.108 66.7788 20.517 67.0231 20.0057C67.2702 19.4915 67.614 19.0909 68.0543 18.804C68.4975 18.5142 69.0146 18.3693 69.6055 18.3693C69.9464 18.3693 70.283 18.4261 70.6154 18.5398C70.9478 18.6534 71.2504 18.8381 71.5231 19.0938C71.7958 19.3466 72.0131 19.6818 72.1751 20.0994C72.337 20.517 72.418 21.0312 72.418 21.642V22.0682H67.3725V21.1989H71.3952C71.3952 20.8295 71.3214 20.5 71.1737 20.2102C71.0288 19.9205 70.8214 19.6918 70.5515 19.5241C70.2844 19.3565 69.9691 19.2727 69.6055 19.2727C69.2049 19.2727 68.8583 19.3722 68.5657 19.571C68.2759 19.767 68.0529 20.0227 67.8967 20.3381C67.7404 20.6534 67.6623 20.9915 67.6623 21.3523V21.9318C67.6623 22.4261 67.7475 22.8452 67.918 23.1889C68.0913 23.5298 68.3313 23.7898 68.6381 23.9688C68.945 24.1449 69.3015 24.233 69.7077 24.233C69.9719 24.233 70.2106 24.196 70.4237 24.1222C70.6396 24.0455 70.8256 23.9318 70.9819 23.7812C71.1381 23.6278 71.2589 23.4375 71.3441 23.2102L72.3157 23.483C72.2134 23.8125 72.0415 24.1023 71.8001 24.3523C71.5586 24.5994 71.2603 24.7926 70.9052 24.9318C70.5501 25.0682 70.1509 25.1364 69.7077 25.1364ZM77.3228 27.4545V18.4545H78.2944V19.4943H78.4137C78.4876 19.3807 78.5898 19.2358 78.7205 19.0597C78.854 18.8807 79.0444 18.7216 79.2915 18.5824C79.5415 18.4403 79.8796 18.3693 80.3058 18.3693C80.8569 18.3693 81.3427 18.5071 81.7631 18.7827C82.1836 19.0582 82.5117 19.4489 82.7475 19.9545C82.9833 20.4602 83.1012 21.0568 83.1012 21.7443C83.1012 22.4375 82.9833 23.0384 82.7475 23.5469C82.5117 24.0526 82.185 24.4446 81.7674 24.723C81.3498 24.9986 80.8683 25.1364 80.3228 25.1364C79.9023 25.1364 79.5657 25.0668 79.3129 24.9276C79.06 24.7855 78.8654 24.625 78.729 24.446C78.5927 24.2642 78.4876 24.1136 78.4137 23.9943H78.3285V27.4545H77.3228ZM78.3114 21.7273C78.3114 22.2216 78.3839 22.6577 78.5288 23.0355C78.6737 23.4105 78.8853 23.7045 79.1637 23.9176C79.4421 24.1278 79.783 24.233 80.1864 24.233C80.6069 24.233 80.9577 24.1222 81.239 23.9006C81.5231 23.6761 81.7362 23.375 81.8782 22.9972C82.0231 22.6165 82.0955 22.1932 82.0955 21.7273C82.0955 21.267 82.0245 20.8523 81.8825 20.483C81.7433 20.1108 81.5316 19.8168 81.2475 19.6009C80.9663 19.3821 80.6126 19.2727 80.1864 19.2727C79.7773 19.2727 79.4336 19.3764 79.1552 19.5838C78.8768 19.7884 78.6665 20.0753 78.5245 20.4446C78.3825 20.8111 78.3114 21.2386 78.3114 21.7273ZM84.6353 25V18.4545H85.6069V19.4432H85.6751C85.7944 19.1193 86.0103 18.8565 86.3228 18.6548C86.6353 18.4531 86.9876 18.3523 87.3796 18.3523C87.4535 18.3523 87.5458 18.3537 87.6566 18.3565C87.7674 18.3594 87.8512 18.3636 87.908 18.3693V19.392C87.8739 19.3835 87.7958 19.3707 87.6737 19.3537C87.5543 19.3338 87.4279 19.3239 87.2944 19.3239C86.9762 19.3239 86.6921 19.3906 86.4421 19.5241C86.195 19.6548 85.9989 19.8366 85.854 20.0696C85.712 20.2997 85.641 20.5625 85.641 20.858V25H84.6353ZM91.56 25.1364C90.9691 25.1364 90.4506 24.9957 90.0046 24.7145C89.5614 24.4332 89.2148 24.0398 88.9648 23.5341C88.7177 23.0284 88.5941 22.4375 88.5941 21.7614C88.5941 21.0795 88.7177 20.4844 88.9648 19.9759C89.2148 19.4673 89.5614 19.0724 90.0046 18.7912C90.4506 18.5099 90.9691 18.3693 91.56 18.3693C92.1509 18.3693 92.668 18.5099 93.1112 18.7912C93.5572 19.0724 93.9038 19.4673 94.1509 19.9759C94.4009 20.4844 94.5259 21.0795 94.5259 21.7614C94.5259 22.4375 94.4009 23.0284 94.1509 23.5341C93.9038 24.0398 93.5572 24.4332 93.1112 24.7145C92.668 24.9957 92.1509 25.1364 91.56 25.1364ZM91.56 24.233C92.0089 24.233 92.3782 24.1179 92.668 23.8878C92.9577 23.6577 93.1722 23.3551 93.3114 22.9801C93.4506 22.6051 93.5202 22.1989 93.5202 21.7614C93.5202 21.3239 93.4506 20.9162 93.3114 20.5384C93.1722 20.1605 92.9577 19.8551 92.668 19.6222C92.3782 19.3892 92.0089 19.2727 91.56 19.2727C91.1112 19.2727 90.7418 19.3892 90.4521 19.6222C90.1623 19.8551 89.9478 20.1605 89.8086 20.5384C89.6694 20.9162 89.5998 21.3239 89.5998 21.7614C89.5998 22.1989 89.6694 22.6051 89.8086 22.9801C89.9478 23.3551 90.1623 23.6577 90.4521 23.8878C90.7418 24.1179 91.1112 24.233 91.56 24.233ZM96.0611 18.4545H97.0668V25.4773C97.0668 25.8807 96.9972 26.2301 96.858 26.5256C96.7216 26.821 96.5142 27.0497 96.2358 27.2116C95.9602 27.3736 95.6122 27.4545 95.1918 27.4545C95.1577 27.4545 95.1236 27.4545 95.0895 27.4545C95.0554 27.4545 95.0213 27.4545 94.9872 27.4545V26.517C95.0213 26.517 95.0526 26.517 95.081 26.517C95.1094 26.517 95.1406 26.517 95.1747 26.517C95.4815 26.517 95.706 26.4261 95.848 26.2443C95.9901 26.0653 96.0611 25.8097 96.0611 25.4773V18.4545ZM96.5554 17.3636C96.3594 17.3636 96.1903 17.2969 96.0483 17.1634C95.9091 17.0298 95.8395 16.8693 95.8395 16.6818C95.8395 16.4943 95.9091 16.3338 96.0483 16.2003C96.1903 16.0668 96.3594 16 96.5554 16C96.7514 16 96.919 16.0668 97.0582 16.2003C97.2003 16.3338 97.2713 16.4943 97.2713 16.6818C97.2713 16.8693 97.2003 17.0298 97.0582 17.1634C96.919 17.2969 96.7514 17.3636 96.5554 17.3636ZM101.653 25.1364C101.022 25.1364 100.478 24.9972 100.021 24.7188C99.5664 24.4375 99.2156 24.0455 98.9684 23.5426C98.7241 23.0369 98.6019 22.4489 98.6019 21.7784C98.6019 21.108 98.7241 20.517 98.9684 20.0057C99.2156 19.4915 99.5593 19.0909 99.9996 18.804C100.443 18.5142 100.96 18.3693 101.551 18.3693C101.892 18.3693 102.228 18.4261 102.561 18.5398C102.893 18.6534 103.196 18.8381 103.468 19.0938C103.741 19.3466 103.958 19.6818 104.12 20.0994C104.282 20.517 104.363 21.0312 104.363 21.642V22.0682H99.3178V21.1989H103.341C103.341 20.8295 103.267 20.5 103.119 20.2102C102.974 19.9205 102.767 19.6918 102.497 19.5241C102.23 19.3565 101.914 19.2727 101.551 19.2727C101.15 19.2727 100.804 19.3722 100.511 19.571C100.221 19.767 99.9982 20.0227 99.842 20.3381C99.6857 20.6534 99.6076 20.9915 99.6076 21.3523V21.9318C99.6076 22.4261 99.6928 22.8452 99.8633 23.1889C100.037 23.5298 100.277 23.7898 100.583 23.9688C100.89 24.1449 101.247 24.233 101.653 24.233C101.917 24.233 102.156 24.196 102.369 24.1222C102.585 24.0455 102.771 23.9318 102.927 23.7812C103.083 23.6278 103.204 23.4375 103.289 23.2102L104.261 23.483C104.159 23.8125 103.987 24.1023 103.745 24.3523C103.504 24.5994 103.206 24.7926 102.85 24.9318C102.495 25.0682 102.096 25.1364 101.653 25.1364ZM108.552 25.1364C107.939 25.1364 107.41 24.9915 106.967 24.7017C106.524 24.4119 106.183 24.0128 105.944 23.5043C105.706 22.9957 105.586 22.4148 105.586 21.7614C105.586 21.0966 105.708 20.5099 105.953 20.0014C106.2 19.4901 106.544 19.0909 106.984 18.804C107.427 18.5142 107.944 18.3693 108.535 18.3693C108.995 18.3693 109.41 18.4545 109.779 18.625C110.149 18.7955 110.451 19.0341 110.687 19.3409C110.923 19.6477 111.069 20.0057 111.126 20.4148H110.12C110.044 20.1165 109.873 19.8523 109.609 19.6222C109.348 19.3892 108.995 19.2727 108.552 19.2727C108.16 19.2727 107.816 19.375 107.521 19.5795C107.228 19.7812 107 20.0668 106.835 20.4361C106.673 20.8026 106.592 21.233 106.592 21.7273C106.592 22.233 106.672 22.6733 106.831 23.0483C106.993 23.4233 107.22 23.7145 107.512 23.9219C107.808 24.1293 108.154 24.233 108.552 24.233C108.814 24.233 109.051 24.1875 109.264 24.0966C109.477 24.0057 109.657 23.875 109.805 23.7045C109.953 23.5341 110.058 23.3295 110.12 23.0909H111.126C111.069 23.4773 110.929 23.8253 110.704 24.1349C110.483 24.4418 110.189 24.6861 109.822 24.8679C109.458 25.0469 109.035 25.1364 108.552 25.1364ZM115.443 18.4545V19.3068H112.051V18.4545H115.443ZM113.039 16.8864H114.045V23.125C114.045 23.4091 114.086 23.6222 114.169 23.7642C114.254 23.9034 114.362 23.9972 114.493 24.0455C114.626 24.0909 114.767 24.1136 114.914 24.1136C115.025 24.1136 115.116 24.108 115.187 24.0966C115.258 24.0824 115.315 24.071 115.358 24.0625L115.562 24.9659C115.494 24.9915 115.399 25.017 115.277 25.0426C115.154 25.071 115 25.0852 114.812 25.0852C114.528 25.0852 114.25 25.0241 113.977 24.902C113.707 24.7798 113.483 24.5938 113.304 24.3438C113.127 24.0938 113.039 23.7784 113.039 23.3977V16.8864ZM121.475 19.9205L120.571 20.1761C120.515 20.0256 120.431 19.8793 120.32 19.7372C120.212 19.5923 120.064 19.473 119.877 19.3793C119.689 19.2855 119.449 19.2386 119.157 19.2386C118.756 19.2386 118.422 19.331 118.155 19.5156C117.891 19.6974 117.759 19.929 117.759 20.2102C117.759 20.4602 117.85 20.6577 118.032 20.8026C118.213 20.9474 118.498 21.0682 118.884 21.1648L119.855 21.4034C120.441 21.5455 120.877 21.7628 121.164 22.0554C121.451 22.3452 121.594 22.7187 121.594 23.1761C121.594 23.5511 121.486 23.8864 121.27 24.1818C121.057 24.4773 120.759 24.7102 120.375 24.8807C119.992 25.0511 119.546 25.1364 119.037 25.1364C118.37 25.1364 117.817 24.9915 117.38 24.7017C116.942 24.4119 116.665 23.9886 116.549 23.4318L117.503 23.1932C117.594 23.5455 117.766 23.8097 118.019 23.9858C118.275 24.1619 118.608 24.25 119.02 24.25C119.489 24.25 119.861 24.1506 120.137 23.9517C120.415 23.75 120.554 23.5085 120.554 23.2273C120.554 23 120.475 22.8097 120.316 22.6562C120.157 22.5 119.912 22.3835 119.583 22.3068L118.492 22.0511C117.892 21.9091 117.452 21.6889 117.171 21.3906C116.892 21.0895 116.753 20.7131 116.753 20.2614C116.753 19.892 116.857 19.5653 117.064 19.2812C117.275 18.9972 117.56 18.7741 117.921 18.6122C118.284 18.4503 118.696 18.3693 119.157 18.3693C119.804 18.3693 120.313 18.5114 120.682 18.7955C121.054 19.0795 121.319 19.4545 121.475 19.9205ZM128.409 25.1534C127.994 25.1534 127.618 25.0753 127.28 24.919C126.942 24.7599 126.673 24.5312 126.474 24.233C126.276 23.9318 126.176 23.5682 126.176 23.142C126.176 22.767 126.25 22.4631 126.398 22.2301C126.545 21.9943 126.743 21.8097 126.99 21.6761C127.237 21.5426 127.51 21.4432 127.808 21.3778C128.109 21.3097 128.412 21.2557 128.716 21.2159C129.114 21.1648 129.436 21.1264 129.683 21.1009C129.933 21.0724 130.115 21.0256 130.229 20.9602C130.345 20.8949 130.403 20.7812 130.403 20.6193V20.5852C130.403 20.1648 130.288 19.8381 130.058 19.6051C129.831 19.3722 129.486 19.2557 129.023 19.2557C128.543 19.2557 128.166 19.3608 127.893 19.571C127.621 19.7812 127.429 20.0057 127.318 20.2443L126.364 19.9034C126.534 19.5057 126.761 19.196 127.045 18.9744C127.332 18.75 127.645 18.5937 127.983 18.5057C128.324 18.4148 128.659 18.3693 128.989 18.3693C129.199 18.3693 129.44 18.3949 129.713 18.446C129.989 18.4943 130.254 18.5952 130.51 18.7486C130.768 18.902 130.983 19.1335 131.153 19.4432C131.324 19.7528 131.409 20.1676 131.409 20.6875V25H130.403V24.1136H130.352C130.284 24.2557 130.17 24.4077 130.011 24.5696C129.852 24.7315 129.641 24.8693 129.376 24.983C129.112 25.0966 128.79 25.1534 128.409 25.1534ZM128.562 24.25C128.96 24.25 129.295 24.1719 129.568 24.0156C129.844 23.8594 130.051 23.6577 130.19 23.4105C130.332 23.1634 130.403 22.9034 130.403 22.6307V21.7102C130.361 21.7614 130.267 21.8082 130.122 21.8509C129.98 21.8906 129.815 21.9261 129.628 21.9574C129.443 21.9858 129.263 22.0114 129.087 22.0341C128.913 22.054 128.773 22.071 128.665 22.0852C128.403 22.1193 128.159 22.1747 127.932 22.2514C127.707 22.3253 127.526 22.4375 127.386 22.5881C127.25 22.7358 127.182 22.9375 127.182 23.1932C127.182 23.5426 127.311 23.8068 127.57 23.9858C127.831 24.1619 128.162 24.25 128.562 24.25ZM133.245 25V18.4545H134.216V19.4432H134.284C134.404 19.1193 134.62 18.8565 134.932 18.6548C135.245 18.4531 135.597 18.3523 135.989 18.3523C136.063 18.3523 136.155 18.3537 136.266 18.3565C136.377 18.3594 136.461 18.3636 136.517 18.3693V19.392C136.483 19.3835 136.405 19.3707 136.283 19.3537C136.164 19.3338 136.037 19.3239 135.904 19.3239C135.586 19.3239 135.301 19.3906 135.051 19.5241C134.804 19.6548 134.608 19.8366 134.463 20.0696C134.321 20.2997 134.25 20.5625 134.25 20.858V25H133.245ZM140.255 25.1364C139.624 25.1364 139.08 24.9972 138.623 24.7188C138.168 24.4375 137.817 24.0455 137.57 23.5426C137.326 23.0369 137.203 22.4489 137.203 21.7784C137.203 21.108 137.326 20.517 137.57 20.0057C137.817 19.4915 138.161 19.0909 138.601 18.804C139.044 18.5142 139.561 18.3693 140.152 18.3693C140.493 18.3693 140.83 18.4261 141.162 18.5398C141.495 18.6534 141.797 18.8381 142.07 19.0938C142.343 19.3466 142.56 19.6818 142.722 20.0994C142.884 20.517 142.965 21.0312 142.965 21.642V22.0682H137.919V21.1989H141.942C141.942 20.8295 141.868 20.5 141.721 20.2102C141.576 19.9205 141.368 19.6918 141.098 19.5241C140.831 19.3565 140.516 19.2727 140.152 19.2727C139.752 19.2727 139.405 19.3722 139.113 19.571C138.823 19.767 138.6 20.0227 138.444 20.3381C138.287 20.6534 138.209 20.9915 138.209 21.3523V21.9318C138.209 22.4261 138.294 22.8452 138.465 23.1889C138.638 23.5298 138.878 23.7898 139.185 23.9688C139.492 24.1449 139.848 24.233 140.255 24.233C140.519 24.233 140.757 24.196 140.971 24.1222C141.186 24.0455 141.373 23.9318 141.529 23.7812C141.685 23.6278 141.806 23.4375 141.891 23.2102L142.863 23.483C142.76 23.8125 142.588 24.1023 142.347 24.3523C142.105 24.5994 141.807 24.7926 141.452 24.9318C141.097 25.0682 140.698 25.1364 140.255 25.1364ZM150.784 18.4545V19.3068H147.256V18.4545H150.784ZM148.313 25V17.5511C148.313 17.1761 148.401 16.8636 148.577 16.6136C148.753 16.3636 148.982 16.1761 149.263 16.0511C149.544 15.9261 149.841 15.8636 150.154 15.8636C150.401 15.8636 150.603 15.8835 150.759 15.9233C150.915 15.9631 151.032 16 151.108 16.0341L150.819 16.9034C150.767 16.8864 150.696 16.8651 150.605 16.8395C150.517 16.8139 150.401 16.8011 150.256 16.8011C149.924 16.8011 149.684 16.8849 149.536 17.0526C149.391 17.2202 149.319 17.4659 149.319 17.7898V25H148.313ZM154.583 25.1364C153.993 25.1364 153.474 24.9957 153.028 24.7145C152.585 24.4332 152.238 24.0398 151.988 23.5341C151.741 23.0284 151.618 22.4375 151.618 21.7614C151.618 21.0795 151.741 20.4844 151.988 19.9759C152.238 19.4673 152.585 19.0724 153.028 18.7912C153.474 18.5099 153.993 18.3693 154.583 18.3693C155.174 18.3693 155.691 18.5099 156.135 18.7912C156.581 19.0724 156.927 19.4673 157.174 19.9759C157.424 20.4844 157.549 21.0795 157.549 21.7614C157.549 22.4375 157.424 23.0284 157.174 23.5341C156.927 24.0398 156.581 24.4332 156.135 24.7145C155.691 24.9957 155.174 25.1364 154.583 25.1364ZM154.583 24.233C155.032 24.233 155.402 24.1179 155.691 23.8878C155.981 23.6577 156.196 23.3551 156.335 22.9801C156.474 22.6051 156.544 22.1989 156.544 21.7614C156.544 21.3239 156.474 20.9162 156.335 20.5384C156.196 20.1605 155.981 19.8551 155.691 19.6222C155.402 19.3892 155.032 19.2727 154.583 19.2727C154.135 19.2727 153.765 19.3892 153.475 19.6222C153.186 19.8551 152.971 20.1605 152.832 20.5384C152.693 20.9162 152.623 21.3239 152.623 21.7614C152.623 22.1989 152.693 22.6051 152.832 22.9801C152.971 23.3551 153.186 23.6577 153.475 23.8878C153.765 24.1179 154.135 24.233 154.583 24.233ZM159.085 25V18.4545H160.056V19.4432H160.124C160.244 19.1193 160.46 18.8565 160.772 18.6548C161.085 18.4531 161.437 18.3523 161.829 18.3523C161.903 18.3523 161.995 18.3537 162.106 18.3565C162.217 18.3594 162.3 18.3636 162.357 18.3693V19.392C162.323 19.3835 162.245 19.3707 162.123 19.3537C162.004 19.3338 161.877 19.3239 161.744 19.3239C161.425 19.3239 161.141 19.3906 160.891 19.5241C160.644 19.6548 160.448 19.8366 160.303 20.0696C160.161 20.2997 160.09 20.5625 160.09 20.858V25H159.085ZM171.561 19.9205L170.657 20.1761C170.6 20.0256 170.517 19.8793 170.406 19.7372C170.298 19.5923 170.15 19.473 169.963 19.3793C169.775 19.2855 169.535 19.2386 169.243 19.2386C168.842 19.2386 168.508 19.331 168.241 19.5156C167.977 19.6974 167.845 19.929 167.845 20.2102C167.845 20.4602 167.936 20.6577 168.118 20.8026C168.299 20.9474 168.583 21.0682 168.97 21.1648L169.941 21.4034C170.527 21.5455 170.963 21.7628 171.25 22.0554C171.537 22.3452 171.68 22.7187 171.68 23.1761C171.68 23.5511 171.572 23.8864 171.356 24.1818C171.143 24.4773 170.845 24.7102 170.461 24.8807C170.078 25.0511 169.632 25.1364 169.123 25.1364C168.456 25.1364 167.903 24.9915 167.466 24.7017C167.028 24.4119 166.751 23.9886 166.635 23.4318L167.589 23.1932C167.68 23.5455 167.852 23.8097 168.105 23.9858C168.36 24.1619 168.694 24.25 169.106 24.25C169.575 24.25 169.947 24.1506 170.223 23.9517C170.501 23.75 170.64 23.5085 170.64 23.2273C170.64 23 170.561 22.8097 170.402 22.6562C170.243 22.5 169.998 22.3835 169.669 22.3068L168.578 22.0511C167.978 21.9091 167.538 21.6889 167.257 21.3906C166.978 21.0895 166.839 20.7131 166.839 20.2614C166.839 19.892 166.943 19.5653 167.15 19.2812C167.36 18.9972 167.646 18.7741 168.007 18.6122C168.37 18.4503 168.782 18.3693 169.243 18.3693C169.89 18.3693 170.399 18.5114 170.768 18.7955C171.14 19.0795 171.404 19.4545 171.561 19.9205ZM176.04 18.4545V19.3068H172.648V18.4545H176.04ZM173.637 16.8864H174.643V23.125C174.643 23.4091 174.684 23.6222 174.766 23.7642C174.852 23.9034 174.96 23.9972 175.09 24.0455C175.224 24.0909 175.364 24.1136 175.512 24.1136C175.623 24.1136 175.714 24.108 175.785 24.0966C175.856 24.0824 175.913 24.071 175.955 24.0625L176.16 24.9659C176.092 24.9915 175.996 25.017 175.874 25.0426C175.752 25.071 175.597 25.0852 175.41 25.0852C175.126 25.0852 174.847 25.0241 174.575 24.902C174.305 24.7798 174.08 24.5938 173.901 24.3438C173.725 24.0938 173.637 23.7784 173.637 23.3977V16.8864ZM181.678 22.3239V18.4545H182.684V25H181.678V23.892H181.61C181.457 24.2244 181.218 24.5071 180.894 24.7401C180.57 24.9702 180.161 25.0852 179.667 25.0852C179.258 25.0852 178.894 24.9957 178.576 24.8168C178.258 24.6349 178.008 24.3622 177.826 23.9986C177.644 23.6321 177.553 23.1705 177.553 22.6136V18.4545H178.559V22.5455C178.559 23.0227 178.692 23.4034 178.96 23.6875C179.229 23.9716 179.573 24.1136 179.991 24.1136C180.241 24.1136 180.495 24.0497 180.754 23.9219C181.015 23.794 181.234 23.598 181.41 23.3338C181.589 23.0696 181.678 22.733 181.678 22.3239ZM186.998 25.1364C186.452 25.1364 185.971 24.9986 185.553 24.723C185.135 24.4446 184.809 24.0526 184.573 23.5469C184.337 23.0384 184.219 22.4375 184.219 21.7443C184.219 21.0568 184.337 20.4602 184.573 19.9545C184.809 19.4489 185.137 19.0582 185.557 18.7827C185.978 18.5071 186.463 18.3693 187.015 18.3693C187.441 18.3693 187.777 18.4403 188.025 18.5824C188.275 18.7216 188.465 18.8807 188.596 19.0597C188.729 19.2358 188.833 19.3807 188.907 19.4943H188.992V16.2727H189.998V25H189.026V23.9943H188.907C188.833 24.1136 188.728 24.2642 188.591 24.446C188.455 24.625 188.26 24.7855 188.007 24.9276C187.755 25.0668 187.418 25.1364 186.998 25.1364ZM187.134 24.233C187.537 24.233 187.878 24.1278 188.157 23.9176C188.435 23.7045 188.647 23.4105 188.792 23.0355C188.936 22.6577 189.009 22.2216 189.009 21.7273C189.009 21.2386 188.938 20.8111 188.796 20.4446C188.654 20.0753 188.444 19.7884 188.165 19.5838C187.887 19.3764 187.543 19.2727 187.134 19.2727C186.708 19.2727 186.353 19.3821 186.069 19.6009C185.787 19.8168 185.576 20.1108 185.434 20.483C185.294 20.8523 185.225 21.267 185.225 21.7273C185.225 22.1932 185.296 22.6165 185.438 22.9972C185.583 23.375 185.796 23.6761 186.077 23.9006C186.361 24.1222 186.713 24.233 187.134 24.233ZM192.627 27.4545C192.456 27.4545 192.304 27.4403 192.171 27.4119C192.037 27.3864 191.945 27.3608 191.894 27.3352L192.15 26.4489C192.394 26.5114 192.61 26.5341 192.797 26.517C192.985 26.5 193.151 26.4162 193.296 26.2656C193.444 26.1179 193.578 25.8778 193.701 25.5455L193.888 25.0341L191.468 18.4545H192.559L194.365 23.6705H194.434L196.24 18.4545H197.331L194.553 25.9545C194.428 26.2926 194.273 26.5724 194.088 26.794C193.904 27.0185 193.689 27.1847 193.445 27.2926C193.203 27.4006 192.931 27.4545 192.627 27.4545ZM204.693 25.1364C204.102 25.1364 203.583 24.9957 203.137 24.7145C202.694 24.4332 202.348 24.0398 202.098 23.5341C201.85 23.0284 201.727 22.4375 201.727 21.7614C201.727 21.0795 201.85 20.4844 202.098 19.9759C202.348 19.4673 202.694 19.0724 203.137 18.7912C203.583 18.5099 204.102 18.3693 204.693 18.3693C205.284 18.3693 205.801 18.5099 206.244 18.7912C206.69 19.0724 207.037 19.4673 207.284 19.9759C207.534 20.4844 207.659 21.0795 207.659 21.7614C207.659 22.4375 207.534 23.0284 207.284 23.5341C207.037 24.0398 206.69 24.4332 206.244 24.7145C205.801 24.9957 205.284 25.1364 204.693 25.1364ZM204.693 24.233C205.142 24.233 205.511 24.1179 205.801 23.8878C206.091 23.6577 206.305 23.3551 206.444 22.9801C206.583 22.6051 206.653 22.1989 206.653 21.7614C206.653 21.3239 206.583 20.9162 206.444 20.5384C206.305 20.1605 206.091 19.8551 205.801 19.6222C205.511 19.3892 205.142 19.2727 204.693 19.2727C204.244 19.2727 203.875 19.3892 203.585 19.6222C203.295 19.8551 203.081 20.1605 202.941 20.5384C202.802 20.9162 202.733 21.3239 202.733 21.7614C202.733 22.1989 202.802 22.6051 202.941 22.9801C203.081 23.3551 203.295 23.6577 203.585 23.8878C203.875 24.1179 204.244 24.233 204.693 24.233ZM210.2 21.0625V25H209.194V18.4545H210.165V19.4773H210.251C210.404 19.1449 210.637 18.8778 210.95 18.6761C211.262 18.4716 211.665 18.3693 212.16 18.3693C212.603 18.3693 212.991 18.4602 213.323 18.642C213.656 18.821 213.914 19.0938 214.099 19.4602C214.283 19.8239 214.376 20.2841 214.376 20.8409V25H213.37V20.9091C213.37 20.3949 213.237 19.9943 212.969 19.7074C212.702 19.4176 212.336 19.2727 211.87 19.2727C211.549 19.2727 211.262 19.3423 211.009 19.4815C210.759 19.6207 210.562 19.8239 210.417 20.0909C210.272 20.358 210.2 20.6818 210.2 21.0625ZM217.219 16.2727V25H216.213V16.2727H217.219ZM219.709 27.4545C219.538 27.4545 219.386 27.4403 219.253 27.4119C219.119 27.3864 219.027 27.3608 218.976 27.3352L219.232 26.4489C219.476 26.5114 219.692 26.5341 219.879 26.517C220.067 26.5 220.233 26.4162 220.378 26.2656C220.526 26.1179 220.661 25.8778 220.783 25.5455L220.97 25.0341L218.55 18.4545H219.641L221.447 23.6705H221.516L223.322 18.4545H224.413L221.635 25.9545C221.51 26.2926 221.355 26.5724 221.17 26.794C220.986 27.0185 220.771 27.1847 220.527 27.2926C220.286 27.4006 220.013 27.4545 219.709 27.4545ZM226.831 23.8068L226.762 24.267C226.714 24.5909 226.64 24.9375 226.541 25.3068C226.444 25.6761 226.343 26.0241 226.238 26.3509C226.133 26.6776 226.047 26.9375 225.978 27.1307H225.211C225.248 26.9489 225.297 26.7088 225.356 26.4105C225.416 26.1122 225.475 25.7784 225.535 25.4091C225.598 25.0426 225.649 24.6676 225.689 24.2841L225.74 23.8068H226.831ZM233.075 21.0625V25H232.069V18.4545H233.04V19.4773H233.126C233.279 19.1449 233.512 18.8778 233.825 18.6761C234.137 18.4716 234.54 18.3693 235.035 18.3693C235.478 18.3693 235.866 18.4602 236.198 18.642C236.531 18.821 236.789 19.0938 236.974 19.4602C237.158 19.8239 237.251 20.2841 237.251 20.8409V25H236.245V20.9091C236.245 20.3949 236.112 19.9943 235.844 19.7074C235.577 19.4176 235.211 19.2727 234.745 19.2727C234.424 19.2727 234.137 19.3423 233.884 19.4815C233.634 19.6207 233.437 19.8239 233.292 20.0909C233.147 20.358 233.075 20.6818 233.075 21.0625ZM241.748 25.1364C241.157 25.1364 240.638 24.9957 240.192 24.7145C239.749 24.4332 239.402 24.0398 239.152 23.5341C238.905 23.0284 238.782 22.4375 238.782 21.7614C238.782 21.0795 238.905 20.4844 239.152 19.9759C239.402 19.4673 239.749 19.0724 240.192 18.7912C240.638 18.5099 241.157 18.3693 241.748 18.3693C242.338 18.3693 242.855 18.5099 243.299 18.7912C243.745 19.0724 244.091 19.4673 244.338 19.9759C244.588 20.4844 244.713 21.0795 244.713 21.7614C244.713 22.4375 244.588 23.0284 244.338 23.5341C244.091 24.0398 243.745 24.4332 243.299 24.7145C242.855 24.9957 242.338 25.1364 241.748 25.1364ZM241.748 24.233C242.196 24.233 242.566 24.1179 242.855 23.8878C243.145 23.6577 243.36 23.3551 243.499 22.9801C243.638 22.6051 243.708 22.1989 243.708 21.7614C243.708 21.3239 243.638 20.9162 243.499 20.5384C243.36 20.1605 243.145 19.8551 242.855 19.6222C242.566 19.3892 242.196 19.2727 241.748 19.2727C241.299 19.2727 240.929 19.3892 240.64 19.6222C240.35 19.8551 240.135 20.1605 239.996 20.5384C239.857 20.9162 239.787 21.3239 239.787 21.7614C239.787 22.1989 239.857 22.6051 239.996 22.9801C240.135 23.3551 240.35 23.6577 240.64 23.8878C240.929 24.1179 241.299 24.233 241.748 24.233ZM249.095 18.4545V19.3068H245.703V18.4545H249.095ZM246.692 16.8864H247.697V23.125C247.697 23.4091 247.739 23.6222 247.821 23.7642C247.906 23.9034 248.014 23.9972 248.145 24.0455C248.278 24.0909 248.419 24.1136 248.567 24.1136C248.678 24.1136 248.768 24.108 248.839 24.0966C248.911 24.0824 248.967 24.071 249.01 24.0625L249.214 24.9659C249.146 24.9915 249.051 25.017 248.929 25.0426C248.807 25.071 248.652 25.0852 248.464 25.0852C248.18 25.0852 247.902 25.0241 247.629 24.902C247.359 24.7798 247.135 24.5938 246.956 24.3438C246.78 24.0938 246.692 23.7784 246.692 23.3977V16.8864ZM253.983 25V18.4545H254.955V19.4773H255.04C255.176 19.1278 255.396 18.8565 255.7 18.6634C256.004 18.4673 256.369 18.3693 256.795 18.3693C257.227 18.3693 257.587 18.4673 257.874 18.6634C258.163 18.8565 258.389 19.1278 258.551 19.4773H258.619C258.787 19.1392 259.038 18.8707 259.374 18.6719C259.709 18.4702 260.111 18.3693 260.58 18.3693C261.165 18.3693 261.643 18.5526 262.016 18.919C262.388 19.2827 262.574 19.8494 262.574 20.6193V25H261.568V20.6193C261.568 20.1364 261.436 19.7912 261.172 19.5838C260.908 19.3764 260.597 19.2727 260.239 19.2727C259.778 19.2727 259.422 19.4119 259.169 19.6903C258.916 19.9659 258.79 20.3153 258.79 20.7386V25H257.767V20.517C257.767 20.1449 257.646 19.8452 257.405 19.6179C257.163 19.3878 256.852 19.2727 256.472 19.2727C256.21 19.2727 255.966 19.3423 255.739 19.4815C255.514 19.6207 255.332 19.8139 255.193 20.0611C255.057 20.3054 254.989 20.5881 254.989 20.9091V25H253.983ZM266.339 25.1534C265.924 25.1534 265.548 25.0753 265.21 24.919C264.871 24.7599 264.603 24.5312 264.404 24.233C264.205 23.9318 264.106 23.5682 264.106 23.142C264.106 22.767 264.18 22.4631 264.327 22.2301C264.475 21.9943 264.673 21.8097 264.92 21.6761C265.167 21.5426 265.44 21.4432 265.738 21.3778C266.039 21.3097 266.342 21.2557 266.646 21.2159C267.043 21.1648 267.366 21.1264 267.613 21.1009C267.863 21.0724 268.045 21.0256 268.158 20.9602C268.275 20.8949 268.333 20.7812 268.333 20.6193V20.5852C268.333 20.1648 268.218 19.8381 267.988 19.6051C267.761 19.3722 267.415 19.2557 266.952 19.2557C266.472 19.2557 266.096 19.3608 265.823 19.571C265.55 19.7812 265.359 20.0057 265.248 20.2443L264.293 19.9034C264.464 19.5057 264.691 19.196 264.975 18.9744C265.262 18.75 265.575 18.5937 265.913 18.5057C266.254 18.4148 266.589 18.3693 266.918 18.3693C267.129 18.3693 267.37 18.3949 267.643 18.446C267.918 18.4943 268.184 18.5952 268.44 18.7486C268.698 18.902 268.913 19.1335 269.083 19.4432C269.254 19.7528 269.339 20.1676 269.339 20.6875V25H268.333V24.1136H268.282C268.214 24.2557 268.1 24.4077 267.941 24.5696C267.782 24.7315 267.57 24.8693 267.306 24.983C267.042 25.0966 266.719 25.1534 266.339 25.1534ZM266.492 24.25C266.89 24.25 267.225 24.1719 267.498 24.0156C267.773 23.8594 267.981 23.6577 268.12 23.4105C268.262 23.1634 268.333 22.9034 268.333 22.6307V21.7102C268.29 21.7614 268.197 21.8082 268.052 21.8509C267.91 21.8906 267.745 21.9261 267.558 21.9574C267.373 21.9858 267.192 22.0114 267.016 22.0341C266.843 22.054 266.702 22.071 266.594 22.0852C266.333 22.1193 266.089 22.1747 265.862 22.2514C265.637 22.3253 265.455 22.4375 265.316 22.5881C265.18 22.7358 265.112 22.9375 265.112 23.1932C265.112 23.5426 265.241 23.8068 265.499 23.9858C265.761 24.1619 266.092 24.25 266.492 24.25ZM272.18 16.2727V25H271.174V16.2727H272.18ZM274.022 25V18.4545H275.028V25H274.022ZM274.533 17.3636C274.337 17.3636 274.168 17.2969 274.026 17.1634C273.887 17.0298 273.817 16.8693 273.817 16.6818C273.817 16.4943 273.887 16.3338 274.026 16.2003C274.168 16.0668 274.337 16 274.533 16C274.729 16 274.897 16.0668 275.036 16.2003C275.178 16.3338 275.249 16.4943 275.249 16.6818C275.249 16.8693 275.178 17.0298 275.036 17.1634C274.897 17.2969 274.729 17.3636 274.533 17.3636ZM279.529 25.1364C278.915 25.1364 278.387 24.9915 277.944 24.7017C277.5 24.4119 277.159 24.0128 276.921 23.5043C276.682 22.9957 276.563 22.4148 276.563 21.7614C276.563 21.0966 276.685 20.5099 276.929 20.0014C277.176 19.4901 277.52 19.0909 277.961 18.804C278.404 18.5142 278.921 18.3693 279.512 18.3693C279.972 18.3693 280.387 18.4545 280.756 18.625C281.125 18.7955 281.428 19.0341 281.664 19.3409C281.9 19.6477 282.046 20.0057 282.103 20.4148H281.097C281.02 20.1165 280.85 19.8523 280.586 19.6222C280.324 19.3892 279.972 19.2727 279.529 19.2727C279.137 19.2727 278.793 19.375 278.498 19.5795C278.205 19.7812 277.976 20.0668 277.811 20.4361C277.65 20.8026 277.569 21.233 277.569 21.7273C277.569 22.233 277.648 22.6733 277.807 23.0483C277.969 23.4233 278.196 23.7145 278.489 23.9219C278.784 24.1293 279.131 24.233 279.529 24.233C279.79 24.233 280.027 24.1875 280.24 24.0966C280.453 24.0057 280.634 23.875 280.782 23.7045C280.929 23.5341 281.034 23.3295 281.097 23.0909H282.103C282.046 23.4773 281.905 23.8253 281.681 24.1349C281.459 24.4418 281.165 24.6861 280.799 24.8679C280.435 25.0469 280.012 25.1364 279.529 25.1364ZM283.573 25V18.4545H284.578V25H283.573ZM284.084 17.3636C283.888 17.3636 283.719 17.2969 283.577 17.1634C283.438 17.0298 283.368 16.8693 283.368 16.6818C283.368 16.4943 283.438 16.3338 283.577 16.2003C283.719 16.0668 283.888 16 284.084 16C284.28 16 284.448 16.0668 284.587 16.2003C284.729 16.3338 284.8 16.4943 284.8 16.6818C284.8 16.8693 284.729 17.0298 284.587 17.1634C284.448 17.2969 284.28 17.3636 284.084 17.3636ZM289.08 25.1364C288.489 25.1364 287.97 24.9957 287.524 24.7145C287.081 24.4332 286.734 24.0398 286.484 23.5341C286.237 23.0284 286.114 22.4375 286.114 21.7614C286.114 21.0795 286.237 20.4844 286.484 19.9759C286.734 19.4673 287.081 19.0724 287.524 18.7912C287.97 18.5099 288.489 18.3693 289.08 18.3693C289.67 18.3693 290.188 18.5099 290.631 18.7912C291.077 19.0724 291.423 19.4673 291.67 19.9759C291.92 20.4844 292.045 21.0795 292.045 21.7614C292.045 22.4375 291.92 23.0284 291.67 23.5341C291.423 24.0398 291.077 24.4332 290.631 24.7145C290.188 24.9957 289.67 25.1364 289.08 25.1364ZM289.08 24.233C289.528 24.233 289.898 24.1179 290.188 23.8878C290.477 23.6577 290.692 23.3551 290.831 22.9801C290.97 22.6051 291.04 22.1989 291.04 21.7614C291.04 21.3239 290.97 20.9162 290.831 20.5384C290.692 20.1605 290.477 19.8551 290.188 19.6222C289.898 19.3892 289.528 19.2727 289.08 19.2727C288.631 19.2727 288.261 19.3892 287.972 19.6222C287.682 19.8551 287.467 20.1605 287.328 20.5384C287.189 20.9162 287.119 21.3239 287.119 21.7614C287.119 22.1989 287.189 22.6051 287.328 22.9801C287.467 23.3551 287.682 23.6577 287.972 23.8878C288.261 24.1179 288.631 24.233 289.08 24.233ZM297.706 22.3239V18.4545H298.711V25H297.706V23.892H297.637C297.484 24.2244 297.245 24.5071 296.922 24.7401C296.598 24.9702 296.189 25.0852 295.694 25.0852C295.285 25.0852 294.922 24.9957 294.603 24.8168C294.285 24.6349 294.035 24.3622 293.853 23.9986C293.672 23.6321 293.581 23.1705 293.581 22.6136V18.4545H294.586V22.5455C294.586 23.0227 294.72 23.4034 294.987 23.6875C295.257 23.9716 295.6 24.1136 296.018 24.1136C296.268 24.1136 296.522 24.0497 296.781 23.9219C297.042 23.794 297.261 23.598 297.437 23.3338C297.616 23.0696 297.706 22.733 297.706 22.3239ZM305.19 19.9205L304.286 20.1761C304.229 20.0256 304.146 19.8793 304.035 19.7372C303.927 19.5923 303.779 19.473 303.592 19.3793C303.404 19.2855 303.164 19.2386 302.871 19.2386C302.471 19.2386 302.137 19.331 301.87 19.5156C301.606 19.6974 301.474 19.929 301.474 20.2102C301.474 20.4602 301.565 20.6577 301.746 20.8026C301.928 20.9474 302.212 21.0682 302.599 21.1648L303.57 21.4034C304.156 21.5455 304.592 21.7628 304.879 22.0554C305.165 22.3452 305.309 22.7187 305.309 23.1761C305.309 23.5511 305.201 23.8864 304.985 24.1818C304.772 24.4773 304.474 24.7102 304.09 24.8807C303.707 25.0511 303.261 25.1364 302.752 25.1364C302.085 25.1364 301.532 24.9915 301.094 24.7017C300.657 24.4119 300.38 23.9886 300.263 23.4318L301.218 23.1932C301.309 23.5455 301.481 23.8097 301.734 23.9858C301.989 24.1619 302.323 24.25 302.735 24.25C303.204 24.25 303.576 24.1506 303.852 23.9517C304.13 23.75 304.269 23.5085 304.269 23.2273C304.269 23 304.19 22.8097 304.031 22.6562C303.871 22.5 303.627 22.3835 303.298 22.3068L302.207 22.0511C301.607 21.9091 301.167 21.6889 300.886 21.3906C300.607 21.0895 300.468 20.7131 300.468 20.2614C300.468 19.892 300.572 19.5653 300.779 19.2812C300.989 18.9972 301.275 18.7741 301.636 18.6122C301.999 18.4503 302.411 18.3693 302.871 18.3693C303.519 18.3693 304.028 18.5114 304.397 18.7955C304.769 19.0795 305.033 19.4545 305.19 19.9205ZM307.828 16.2727V25H306.823V16.2727H307.828ZM310.318 27.4545C310.148 27.4545 309.996 27.4403 309.862 27.4119C309.729 27.3864 309.636 27.3608 309.585 27.3352L309.841 26.4489C310.085 26.5114 310.301 26.5341 310.489 26.517C310.676 26.5 310.842 26.4162 310.987 26.2656C311.135 26.1179 311.27 25.8778 311.392 25.5455L311.58 25.0341L309.159 18.4545H310.25L312.057 23.6705H312.125L313.932 18.4545H315.023L312.244 25.9545C312.119 26.2926 311.964 26.5724 311.78 26.794C311.595 27.0185 311.381 27.1847 311.136 27.2926C310.895 27.4006 310.622 27.4545 310.318 27.4545ZM323.85 22.3239V18.4545H324.856V25H323.85V23.892H323.782C323.629 24.2244 323.39 24.5071 323.066 24.7401C322.742 24.9702 322.333 25.0852 321.839 25.0852C321.43 25.0852 321.066 24.9957 320.748 24.8168C320.43 24.6349 320.18 24.3622 319.998 23.9986C319.816 23.6321 319.725 23.1705 319.725 22.6136V18.4545H320.731V22.5455C320.731 23.0227 320.864 23.4034 321.131 23.6875C321.401 23.9716 321.745 24.1136 322.163 24.1136C322.413 24.1136 322.667 24.0497 322.925 23.9219C323.187 23.794 323.406 23.598 323.582 23.3338C323.761 23.0696 323.85 22.733 323.85 22.3239ZM331.334 19.9205L330.431 20.1761C330.374 20.0256 330.29 19.8793 330.179 19.7372C330.071 19.5923 329.924 19.473 329.736 19.3793C329.549 19.2855 329.309 19.2386 329.016 19.2386C328.615 19.2386 328.282 19.331 328.015 19.5156C327.75 19.6974 327.618 19.929 327.618 20.2102C327.618 20.4602 327.709 20.6577 327.891 20.8026C328.073 20.9474 328.357 21.0682 328.743 21.1648L329.715 21.4034C330.3 21.5455 330.736 21.7628 331.023 22.0554C331.31 22.3452 331.453 22.7187 331.453 23.1761C331.453 23.5511 331.346 23.8864 331.13 24.1818C330.917 24.4773 330.618 24.7102 330.235 24.8807C329.851 25.0511 329.405 25.1364 328.897 25.1364C328.229 25.1364 327.676 24.9915 327.239 24.7017C326.801 24.4119 326.525 23.9886 326.408 23.4318L327.363 23.1932C327.453 23.5455 327.625 23.8097 327.878 23.9858C328.134 24.1619 328.468 24.25 328.88 24.25C329.348 24.25 329.721 24.1506 329.996 23.9517C330.275 23.75 330.414 23.5085 330.414 23.2273C330.414 23 330.334 22.8097 330.175 22.6562C330.016 22.5 329.772 22.3835 329.442 22.3068L328.351 22.0511C327.752 21.9091 327.311 21.6889 327.03 21.3906C326.752 21.0895 326.613 20.7131 326.613 20.2614C326.613 19.892 326.716 19.5653 326.924 19.2812C327.134 18.9972 327.419 18.7741 327.78 18.6122C328.144 18.4503 328.556 18.3693 329.016 18.3693C329.664 18.3693 330.172 18.5114 330.542 18.7955C330.914 19.0795 331.178 19.4545 331.334 19.9205ZM335.712 25.1364C335.081 25.1364 334.537 24.9972 334.08 24.7188C333.625 24.4375 333.274 24.0455 333.027 23.5426C332.783 23.0369 332.661 22.4489 332.661 21.7784C332.661 21.108 332.783 20.517 333.027 20.0057C333.274 19.4915 333.618 19.0909 334.058 18.804C334.501 18.5142 335.018 18.3693 335.609 18.3693C335.95 18.3693 336.287 18.4261 336.619 18.5398C336.952 18.6534 337.254 18.8381 337.527 19.0938C337.8 19.3466 338.017 19.6818 338.179 20.0994C338.341 20.517 338.422 21.0312 338.422 21.642V22.0682H333.376V21.1989H337.399C337.399 20.8295 337.325 20.5 337.178 20.2102C337.033 19.9205 336.825 19.6918 336.555 19.5241C336.288 19.3565 335.973 19.2727 335.609 19.2727C335.209 19.2727 334.862 19.3722 334.57 19.571C334.28 19.767 334.057 20.0227 333.901 20.3381C333.744 20.6534 333.666 20.9915 333.666 21.3523V21.9318C333.666 22.4261 333.751 22.8452 333.922 23.1889C334.095 23.5298 334.335 23.7898 334.642 23.9688C334.949 24.1449 335.305 24.233 335.712 24.233C335.976 24.233 336.214 24.196 336.428 24.1222C336.643 24.0455 336.83 23.9318 336.986 23.7812C337.142 23.6278 337.263 23.4375 337.348 23.2102L338.32 23.483C338.217 23.8125 338.045 24.1023 337.804 24.3523C337.563 24.5994 337.264 24.7926 336.909 24.9318C336.554 25.0682 336.155 25.1364 335.712 25.1364ZM342.423 25.1364C341.878 25.1364 341.396 24.9986 340.979 24.723C340.561 24.4446 340.234 24.0526 339.999 23.5469C339.763 23.0384 339.645 22.4375 339.645 21.7443C339.645 21.0568 339.763 20.4602 339.999 19.9545C340.234 19.4489 340.563 19.0582 340.983 18.7827C341.403 18.5071 341.889 18.3693 342.44 18.3693C342.866 18.3693 343.203 18.4403 343.45 18.5824C343.7 18.7216 343.891 18.8807 344.021 19.0597C344.155 19.2358 344.259 19.3807 344.332 19.4943H344.418V16.2727H345.423V25H344.452V23.9943H344.332C344.259 24.1136 344.153 24.2642 344.017 24.446C343.881 24.625 343.686 24.7855 343.433 24.9276C343.18 25.0668 342.844 25.1364 342.423 25.1364ZM342.56 24.233C342.963 24.233 343.304 24.1278 343.582 23.9176C343.861 23.7045 344.072 23.4105 344.217 23.0355C344.362 22.6577 344.435 22.2216 344.435 21.7273C344.435 21.2386 344.364 20.8111 344.222 20.4446C344.08 20.0753 343.869 19.7884 343.591 19.5838C343.313 19.3764 342.969 19.2727 342.56 19.2727C342.134 19.2727 341.778 19.3821 341.494 19.6009C341.213 19.8168 341.001 20.1108 340.859 20.483C340.72 20.8523 340.651 21.267 340.651 21.7273C340.651 22.1932 340.722 22.6165 340.864 22.9972C341.009 23.375 341.222 23.6761 341.503 23.9006C341.787 24.1222 342.139 24.233 342.56 24.233Z" fill="#725B19"/>
<path d="M18.4975 19L23.5 22L31 17.5L23.5 13L16 17.5H23.5V19H18.4975ZM16 19V25L17.5 23.335V19.9L16 19ZM23.5 28L19.75 25.75L18.25 24.85V20.35L23.5 23.5L28.75 20.35V24.85L23.5 28Z" fill="#725B19"/>
</svg>
